<svg width="261" height="227" viewBox="0 0 261 227" fill="none" xmlns="http://www.w3.org/2000/svg">
<path d="M85.6463 59.0608C84.7716 59.1662 83.5237 59.8626 82.9696 60.5418C81.6746 62.1294 79.6996 63.0164 78.3217 64.5502C77.1152 65.893 76.2157 66.0432 75.7593 67.9838C75.1728 70.4771 75.1144 73.0389 74.7728 75.5506C74.6151 76.7102 74.0407 77.7758 73.8609 78.9333C73.6724 80.1465 73.6993 81.3621 73.5731 82.5774C73.3621 84.6095 72.9849 86.5293 72.5289 88.5485C72.1512 90.2204 72.1787 91.9259 71.8202 93.6172C71.3941 95.6277 70.8598 97.725 70.2912 99.7006C69.6327 101.989 68.8256 104.446 67.81 106.599C67.2027 107.887 66.3118 108.976 65.8335 110.312C65.3418 111.686 64.6763 112.984 64.0367 114.287C63.4047 115.574 62.5029 116.948 61.7444 118.172C60.8542 119.609 60.1296 121.188 59.3813 122.7C57.8247 125.845 57.3014 129.462 55.7245 132.582C54.2821 135.436 53.6149 138.653 52.3402 141.596C50.9744 144.749 49.9041 148.005 49.1384 151.343C48.4862 154.185 48.0958 157.03 47.3219 159.845C46.8553 161.542 46.6783 162.99 45.9578 164.615C45.4129 165.845 44.8226 167.132 44.394 168.4C43.5992 170.75 42.5304 173.07 41.6272 175.387C40.5062 178.261 39.1469 181.082 37.7146 183.818C36.0784 186.944 34.7193 190.187 32.9966 193.276C32.0606 194.954 31.1135 196.575 30.3194 198.326C29.6645 199.771 28.5055 200.824 27.6973 202.158C25.7749 205.33 23.0085 208.071 20.7097 211C19.4424 212.615 18.7527 214.083 18.1653 216.034C17.8505 217.08 18.5043 217.952 18.6189 218.902C18.8378 220.718 20.611 223.331 22.492 223.769C26.7745 224.766 31.4934 224.596 35.8748 224.067C44.2419 223.058 52.4853 221.476 60.759 219.895C67.2715 218.65 73.3759 216.009 79.7908 214.434C83.0738 213.629 86.142 211.939 89.4347 211.09C91.0734 210.667 92.725 210.298 94.3673 209.889C96.108 209.455 97.8663 209.573 99.6029 209.19C101.475 208.777 103.599 208.896 105.519 208.665C107.653 208.408 109.795 208.392 111.92 208.135C119.079 207.272 126.315 207.032 133.486 206.262C135.339 206.063 136.887 206.093 138.661 205.396C140.294 204.753 141.719 203.85 143.433 203.419C146.492 202.651 149.555 202.117 152.647 201.54C157.209 200.689 162.101 200.752 166.709 200.99C169.307 201.124 171.992 201.583 174.585 201.306C176.269 201.126 177.9 200.802 179.593 201.065C183.021 201.598 186.616 201.297 190.008 201.991C192.581 202.517 195.566 202.072 198.076 201.328C199.373 200.944 201.409 199.868 202.243 198.805C203.081 197.738 202.975 196.24 203.185 195.001C203.542 192.899 202.805 189.545 201.89 187.723C200.65 185.255 198.712 183.703 196.584 182.033C194.348 180.278 192.356 178.282 190.13 176.535C187.711 174.637 184.99 172.944 182.458 171.211C180.328 169.754 178.526 167.841 176.665 166.065C175.093 164.563 173.667 163.191 172.513 161.34C170.766 158.537 168.481 155.458 166.005 153.276C162.798 150.45 159.755 147.117 157.189 143.713C155.376 141.31 154.024 138.964 152.628 136.276C150.752 132.661 148.609 128.78 145.936 125.676C143.499 122.846 140.763 120.146 138.158 117.469C135.4 114.635 133.172 111.303 130.96 108.034C129.54 105.936 128.015 103.872 126.545 101.806C125.518 100.362 124.852 98.7131 123.84 97.2429C123.232 96.3588 122.765 95.342 122.245 94.4049C121.348 92.7843 119.867 91.4476 118.737 89.9929C116.813 87.5157 114.737 84.8734 113.16 82.1671C111.177 78.7633 108.36 75.8452 105.962 72.7321C103.853 69.9952 101.612 67.9131 99.045 65.6335C95.4594 62.4492 90.1895 58.5129 85.1684 59.1184" stroke="#FAFD77" stroke-width="3" stroke-linecap="round"/>
<path d="M98.511 141.631C99.9854 139.38 100.284 135.769 102.693 134.096C103.6 133.987 104.446 135.088 105.278 135.428L105.296 135.435C106.294 135.842 107.381 136.285 108.237 136.956C109.47 137.924 111.713 138.741 112.176 140.468C112.386 141.255 113.936 144.643 113.152 145.441C112.673 145.93 112.638 146.676 112.017 147.086C111.245 147.596 110.67 147.922 109.695 148.04C106.966 148.369 104.187 147.977 101.497 148.301C100.678 148.4 96.6813 148.571 96.5165 147.205C96.467 146.794 97.3108 145.034 97.5316 144.573L97.543 144.549C97.9718 143.654 97.9775 142.445 98.511 141.631Z" stroke="#FAFD77" stroke-width="3" stroke-linecap="round"/>
<path d="M80.1466 67.7242C79.889 66.5708 78.7433 64.9791 79.626 63.8543C81.1584 61.9016 83.6022 61.701 85.9361 61.6792C87.1205 61.6681 88.2063 61.4359 88.8712 62.5643C89.4685 63.5781 89.7149 64.6469 89.8555 65.8126C90.0215 67.1894 90.6405 68.3014 90.7961 69.5914" stroke="#FAFD77" stroke-width="3" stroke-linecap="round"/>
<path d="M81.4595 74.5959C81.2596 72.938 82.1302 70.4377 83.7199 69.6634C85.1489 68.9673 88.8328 68.6396 90.1079 69.8088C91.3894 70.9841 91.6176 72.2167 92.3894 73.7627C92.4929 73.97 92.9476 75.5242 92.9143 75.1001C92.8553 74.348 93.0042 73.3943 93.1572 72.6465C93.6907 70.0379 94.9485 67.5164 97.99 68.8314C100.758 70.0279 100.283 71.8785 100.596 74.47" stroke="#FAFD77" stroke-width="3" stroke-linecap="round"/>
<path d="M84.6835 81.2375C84.6742 80.2425 86.6181 78.3728 87.6228 78.4722C88.317 78.5409 90.0125 78.8315 90.4729 79.4349C91.8866 81.2879 93.178 83.3548 94.1586 85.4282" stroke="#FAFD77" stroke-width="3" stroke-linecap="round"/>
<path d="M98.6743 76.6412C97.0168 75.491 94.842 78.5829 94.3981 79.8236C93.7419 81.6574 94.3917 83.3446 94.6072 85.1317" stroke="#FAFD77" stroke-width="3" stroke-linecap="round"/>
<path d="M86.5739 92.8883C87.4903 91.445 88.0648 88.5872 90.1993 88.3298C91.9405 88.1199 94.5805 87.5622 95.7248 89.2527C96.742 90.7556 97.6306 92.1008 97.8538 93.9522C97.8566 93.9756 97.6833 92.5867 97.7572 92.1457C97.94 91.0547 98.2076 90.0045 98.4595 88.9229C99.0352 86.4502 104.1 83.807 105.754 86.0903C106.455 87.0575 106.612 88.6307 106.187 89.6746C106.016 90.0928 106.013 90.4898 105.778 90.8686C105.564 91.2146 104.989 91.5839 104.878 91.893" stroke="#FAFD77" stroke-width="3" stroke-linecap="round"/>
<path d="M88.7983 103.287C87.7382 102.001 86.7966 100.76 86.5941 99.0814C86.2663 96.3628 90.3018 95.7108 92.1818 95.6061C94.2312 95.4921 95.6428 97.654 96.6398 99.0686C97.2893 99.99 97.1743 102.74 98.2326 103.119" stroke="#FAFD77" stroke-width="3" stroke-linecap="round"/>
<path d="M90.0175 111.383C89.8359 109.876 89.6721 107.965 90.7854 106.805C91.5802 105.977 91.8084 105.488 92.9409 105.023C93.8642 104.645 94.8476 104.908 95.7146 105.241C99.5404 106.711 98.5755 111.854 99.8553 114.56" stroke="#FAFD77" stroke-width="3" stroke-linecap="round"/>
<path d="M99.4022 108.796C99.7338 106.421 101.008 103.767 102.507 101.93C103.682 100.489 105.02 100.267 106.737 100.154C108.187 100.058 109.59 101.267 109.811 102.638C109.929 103.369 110.064 104.722 109.389 105.167" stroke="#FAFD77" stroke-width="3" stroke-linecap="round"/>
<path d="M91.8199 122.317C90.5337 121.307 90.8843 119.35 91.5465 118.04C92.8451 115.471 96.9156 117.67 98.5236 118.491C99.6536 119.068 101.084 119.607 101.918 120.614C102.505 121.323 102.599 122.249 103.058 123.035C103.459 123.722 103.622 126.654 104.249 126.878" stroke="#FAFD77" stroke-width="3" stroke-linecap="round"/>
<path d="M103.635 123.801C102.12 121.382 102.164 116.004 104.117 113.83C105.472 112.322 108.053 112.345 109.88 112.368C111.773 112.391 111.662 113.966 111.851 115.537" stroke="#FAFD77" stroke-width="3" stroke-linecap="round"/>
<path d="M95.5142 130.841C95.0925 129.477 92.8449 127.014 94.7475 125.6C96.5623 124.251 98.4305 126.023 100.002 126.959C102.471 128.429 104.831 131.709 105.171 134.525" stroke="#FAFD77" stroke-width="3" stroke-linecap="round"/>
<path d="M105.735 135.184C105.343 131.933 104.648 129.067 105.449 125.777C105.715 124.685 105.712 123.635 106.614 122.822C107.884 121.678 109.921 121.834 111.517 121.934C114.617 122.13 115.851 124.593 116.173 127.258C116.317 128.453 116.784 130.637 116.228 131.737" stroke="#FAFD77" stroke-width="3" stroke-linecap="round"/>
<path d="M21.8164 211.244C23.3865 212.95 26.8208 212.58 28.9765 212.32" stroke="#FAFD77" stroke-width="3" stroke-linecap="round"/>
<path d="M28.8616 211.364C28.5121 213.621 28.2535 215.644 28.4385 217.907C28.529 219.014 27.3996 221.488 26.5164 222.071" stroke="#FAFD77" stroke-width="3" stroke-linecap="round"/>
<path d="M25.0547 207.944C26.7784 208.333 28.4041 208.025 30.1303 207.817" stroke="#FAFD77" stroke-width="3" stroke-linecap="round"/>
<path d="M34.3335 202.462C33.2242 204.196 32.742 205.346 32.9758 207.285C33.161 208.821 33.4183 210.248 33.7691 211.742C34.0138 212.784 34.4624 213.582 34.5939 214.673C34.7354 215.846 34.639 217.056 34.7728 218.166" stroke="#FAFD77" stroke-width="3" stroke-linecap="round"/>
<path d="M32.541 195.647C34.235 196.636 37.8588 199.23 39.8452 197.918" stroke="#FAFD77" stroke-width="3" stroke-linecap="round"/>
<path d="M39.1366 210.125C38.9831 208.852 38.9862 207.494 39.2613 206.245C39.4009 205.61 39.2574 205.002 39.5496 204.392C39.8563 203.751 40.398 203.359 40.7823 202.775C41.3008 201.987 43.2486 200.466 43.1833 199.455C43.1253 198.558 43.217 197.724 43.1052 196.798" stroke="#FAFD77" stroke-width="3" stroke-linecap="round"/>
<path d="M36.4756 190.082C40.2697 188.763 43.8239 188.18 47.7878 188.287C48.8727 188.316 49.9478 188.276 51.0227 188.085C52.0648 187.901 51.6085 187.405 51.2777 188.189C50.9652 188.93 50.3944 189.446 50.1924 190.246C49.9356 191.264 50.0808 192.336 50.2054 193.369C50.4155 195.111 51.2871 200.294 49.7114 201.334" stroke="#FAFD77" stroke-width="3" stroke-linecap="round"/>
<path d="M43.9743 195.966C43.5655 192.576 47.474 191.422 50.175 191.097" stroke="#FAFD77" stroke-width="3" stroke-linecap="round"/>
<path d="M51.9795 187.97C51.9845 186.824 53.6332 185.147 54.2034 184.187C55.0123 182.824 56.585 181.509 57.8102 180.479C58.7789 179.664 60.0827 179.137 60.9792 178.279C61.4545 177.824 62.078 177.622 62.6981 177.344C63.5393 176.967 63.7641 176.566 64.367 176.106C66.0645 174.811 67.1916 172.201 69.4242 171.806C71.7196 171.398 73.7087 169.562 75.3154 167.944C76.4854 166.765 77.5116 165.454 78.8448 164.488C79.618 163.927 80.4283 163.983 81.3105 163.827C83.3251 163.469 84.9229 160.597 86.3984 159.334C87.4962 158.394 88.3864 157.486 89.5364 156.653C90.4427 155.996 91.992 156.909 93.0091 156.301C93.9603 155.733 94.7517 155.731 95.2326 154.525C95.6573 153.459 96.7859 152.733 97.0369 151.506" stroke="#FAFD77" stroke-width="3" stroke-linecap="round"/>
<path d="M48.5244 179.417C49.6659 179.279 50.7107 178.668 51.905 178.524C53.1699 178.372 54.1212 178.811 55.3219 178.826C57.1197 178.849 58.7466 178.669 60.5296 178.454" stroke="#FAFD77" stroke-width="3" stroke-linecap="round"/>
<path d="M62.4699 178.462C60.2149 179.876 61.1406 183.522 61.4083 185.742C61.8057 189.037 60.4133 190.856 58.1386 192.803" stroke="#FAFD77" stroke-width="3" stroke-linecap="round"/>
<path d="M54.4643 172.398C56.3701 171.139 57.7314 170.191 60.0308 170.757C62.3011 171.315 64.5585 170.695 66.8321 170.421" stroke="#FAFD77" stroke-width="3" stroke-linecap="round"/>
<path d="M71.1547 172.082C70.1908 173.262 69.9509 174.161 70.1389 175.719C70.3023 177.075 71.0553 178.554 70.8354 179.932C70.6725 180.952 70.8439 182.197 70.0226 183.02C69.126 183.917 68.0852 184.899 66.9472 185.438" stroke="#FAFD77" stroke-width="3" stroke-linecap="round"/>
<path d="M64.0503 165.424C65.4603 161.866 67.5105 160.296 71.2345 160.557C72.6131 160.654 74.0013 160.797 75.256 161.405C76.4449 161.982 77.8141 161.974 78.9889 162.652" stroke="#FAFD77" stroke-width="3" stroke-linecap="round"/>
<path d="M81.2467 165.289C81.0277 166.857 80.874 168.295 81.4958 169.811C82.0764 171.227 81.527 172.719 81.288 174.119C80.7093 177.512 76.8537 177.94 74.0853 178.274" stroke="#FAFD77" stroke-width="3" stroke-linecap="round"/>
<path d="M74.1667 158.87C74.3572 154.895 77.0193 153.104 80.7589 153.226C82.5275 153.284 84.2486 153.475 86.0047 153.617C87.7461 153.759 89.551 153.684 91.2643 153.899" stroke="#FAFD77" stroke-width="3" stroke-linecap="round"/>
<path d="M93.3123 156.804C93.5929 159.13 94.3335 161.326 94.0885 163.686C93.8633 165.855 90.4349 168.302 88.4252 168.544" stroke="#FAFD77" stroke-width="3" stroke-linecap="round"/>
<path d="M96.3496 151.831C98.8973 152.029 99.3089 153.299 100.258 155.09C100.768 156.054 99.7778 157.957 98.8291 158.32" stroke="#FAFD77" stroke-width="3" stroke-linecap="round"/>
<path d="M95.4228 152.185C93.2201 149.54 90.7258 148.659 87.4102 148.061" stroke="#FAFD77" stroke-width="3" stroke-linecap="round"/>
<path d="M114.865 150.568C113.96 150.794 115.26 155.027 115.533 155.659C116.775 158.533 120.008 159.887 122.976 159.529" stroke="#FAFD77" stroke-width="3" stroke-linecap="round"/>
<path d="M122.332 156.213C126.287 157.404 126.291 163.163 127.782 166.223C129.519 169.789 131.214 171.385 135.254 170.897" stroke="#FAFD77" stroke-width="3" stroke-linecap="round"/>
<path d="M133.529 162.62C135.235 163.399 138.308 166.06 138.58 168.314C138.778 169.96 139.08 171.694 139.716 173.268C140.333 174.795 142.052 176.416 143.702 176.612C145.346 176.808 146.092 175.651 147.445 175.488" stroke="#FAFD77" stroke-width="3" stroke-linecap="round"/>
<path d="M147.939 171.549C148.837 173.447 150.526 174.834 151.006 176.984C151.306 178.331 152.124 179.906 152.96 181.018C153.45 181.67 157.93 184.204 158.489 182.641" stroke="#FAFD77" stroke-width="3" stroke-linecap="round"/>
<path d="M159.203 176.494C160.107 178.116 160.989 179.238 161.213 181.1C161.357 182.295 161.392 183.536 161.831 184.662C162.302 185.87 165.258 189.729 166.647 187.96" stroke="#FAFD77" stroke-width="3" stroke-linecap="round"/>
<path d="M166.613 181.661C168.088 182.656 169.175 184.588 169.605 186.256C169.846 187.19 170.233 188.033 170.865 188.771C173.024 191.294 178.385 190.81 180.822 188.917" stroke="#FAFD77" stroke-width="3" stroke-linecap="round"/>
<path d="M179.635 187.121C181.552 188.69 183.114 189.915 183.646 192.348C184.152 194.669 185.826 195.344 188.108 195.069" stroke="#FAFD77" stroke-width="3" stroke-linecap="round"/>
<path d="M187.793 192.44C188.555 192.713 189.037 194.114 189.627 194.697C190.488 195.547 191.398 195.84 192.557 196.095C193.343 196.268 195.736 196.906 195.958 195.819" stroke="#FAFD77" stroke-width="3" stroke-linecap="round"/>
<path d="M197.639 193.677C198.477 194.409 198.784 195.136 198.911 196.19" stroke="#FAFD77" stroke-width="3" stroke-linecap="round"/>
<path d="M113.562 147.816C113.927 148.61 114.003 149.734 114.703 150.345C115.514 151.054 116.672 151.772 117.65 152.225C119.466 153.068 121.412 153.423 123.403 153.471C124.338 153.494 125.993 153.585 126.706 154.285C127.335 154.902 128.02 155.488 128.626 156.127C129.631 157.191 130.623 157.371 131.938 157.91C134.066 158.782 136.453 158.831 138.662 159.388C139.84 159.686 141.827 160.895 142.645 161.817C144.086 163.442 145.533 165.44 147.184 166.846C148.752 168.18 150.344 168.083 152.245 168.606C154.793 169.306 154.341 170.714 155.794 172.353C156.7 173.374 158.24 174.271 159.683 174.443C161.041 174.605 162.421 174.676 163.761 174.975C165.144 175.283 166.453 176.417 167.655 177.118C169.526 178.208 170.644 180.169 172.82 180.858C175.061 181.568 177.183 180.674 179.354 181.875C180.333 182.417 181.366 182.989 182.345 183.454C183.11 183.817 183.855 184.991 184.539 185.56C185.78 186.593 186.363 187.512 187.96 188.245C188.838 188.648 189.462 189.262 190.403 189.513C191.129 189.706 191.845 189.873 192.603 190.109C193.394 190.357 193.811 190.249 194.444 190.857C194.976 191.368 194.979 192.278 195.793 192.445" stroke="#FAFD77" stroke-width="3" stroke-linecap="round"/>
<path d="M116.238 149.917C116.639 149.348 117.119 148.25 117.687 147.857C119.331 146.721 121.094 146.665 123.05 146.429C126.564 146.005 130.082 145.855 132.993 148.139" stroke="#FAFD77" stroke-width="3" stroke-linecap="round"/>
<path d="M130.691 149.144C132.755 152.492 138.217 149.664 141.093 150.072C143.548 150.419 144.935 153.391 145.979 155.3" stroke="#FAFD77" stroke-width="3" stroke-linecap="round"/>
<path d="M141.439 155.848C143.55 156.846 146.033 158.382 148.417 157.309C149.787 156.693 151.397 156.956 152.536 157.85C154.515 159.403 155.935 161.464 156.241 164.002" stroke="#FAFD77" stroke-width="3" stroke-linecap="round"/>
<path d="M151.318 163.384C155.158 167.587 160.022 164.384 164.596 165.042C166.393 165.301 168.253 166.289 169.087 168.002C169.874 169.618 170.76 171.818 170.977 173.619" stroke="#FAFD77" stroke-width="3" stroke-linecap="round"/>
<path d="M167.344 171.633C169.547 172.885 171.748 173.65 174.254 173.763C175.567 173.822 176.354 174.113 177.457 174.858C179.863 176.486 180.343 179.193 181.63 181.547" stroke="#FAFD77" stroke-width="3" stroke-linecap="round"/>
<path d="M177.939 179.083C181.598 180.674 185.239 180.745 189.089 181.078C189.996 181.157 190.779 181.501 191.391 182.188C192.987 183.978 194.089 186.353 194.377 188.737" stroke="#FAFD77" stroke-width="3" stroke-linecap="round"/>
<path d="M196.145 187.312C198.075 187.66 200.553 189.528 201.007 191.56C201.157 192.231 201.567 193.672 200.832 194.019" stroke="#FAFD77" stroke-width="3" stroke-linecap="round"/>
<path d="M102.114 137.318C100.871 138.902 100.374 140.615 99.4503 142.366C98.993 143.233 98.4812 144.52 98.4963 145.512C98.501 145.823 97.9179 146.443 98.227 146.406C98.8321 146.333 99.4517 144.601 99.7657 144.2C100.757 142.938 101.845 141.402 103.02 140.36C103.692 139.764 104.096 138.793 104.891 138.343C105.355 138.081 104.531 139.544 104.477 139.713C104.166 140.686 104.047 141.719 103.733 142.698C103.486 143.467 103.216 144.572 103.094 145.334C102.841 146.921 104.004 144.76 104.559 144.188C105.48 143.239 106.216 142.015 107.039 140.966C107.327 140.599 107.465 140.396 107.536 139.95C107.545 139.892 107.337 141.416 107.266 141.841C107.116 142.73 107.014 143.603 106.913 144.497C106.89 144.7 106.607 146.204 106.7 146.192C107.081 146.146 107.393 144.917 107.499 144.668C108.083 143.3 109.064 142.155 109.616 140.777C109.684 140.605 110.143 139.354 110.17 139.794C110.276 141.47 109.85 143.167 110.051 144.832C110.137 145.548 110.066 144.902 110.153 144.564C110.398 143.609 110.345 142.643 110.587 141.683C110.736 141.092 110.997 141.695 111.11 141.997C111.338 142.61 111.108 143.544 111.189 144.223C111.305 145.179 111.42 146.135 111.535 147.091" stroke="#FAFD77" stroke-width="3" stroke-linecap="round"/>
<path d="M183.406 37.5064C180.898 33.8244 178.315 30.4886 173.753 29.6235C171.43 29.1829 167.517 28.7621 165.451 30.1699C159.81 34.012 156.01 44.5355 159.06 51.0465C161.062 55.3208 165.452 56.672 169.734 56.8209C173.341 56.9464 176.732 54.0928 179.106 51.589C181.367 49.2036 183.864 45.9889 183.755 42.4868C183.714 41.175 183.849 40.0827 184.092 38.8003C184.279 37.8126 183.518 35.1215 184.1 37.6639C185.233 42.6122 185.716 47.7859 187.524 52.6164C187.946 53.7443 188.74 54.7013 189.141 55.8198C189.29 56.2364 190.298 57.4359 189.884 57.3574" stroke="#FAFD77" stroke-width="3" stroke-linecap="round"/>
<path d="M220.424 34.2256C217.916 30.5436 215.333 27.2078 210.771 26.3427C208.447 25.9021 204.535 25.4813 202.468 26.8891C196.828 30.7312 193.028 41.2547 196.078 47.7657C198.08 52.04 202.469 53.3913 206.751 53.5402C210.358 53.6656 213.75 50.812 216.124 48.3082C218.385 45.9228 220.882 42.7081 220.772 39.206C220.731 37.8943 220.866 36.8019 221.109 35.5196C221.297 34.5318 220.536 31.8407 221.118 34.3832C222.25 39.3314 222.733 44.5051 224.542 49.3356C224.964 50.4635 225.757 51.4206 226.158 52.5391C226.308 52.9556 227.315 54.1551 226.901 54.0767" stroke="#FAFD77" stroke-width="3" stroke-linecap="round"/>
<path d="M233.34 24.7101C233.74 26.2794 232.728 21.2488 233.554 19.8559C235.037 17.3569 237.891 17.1604 240.377 16.526C246.169 15.0475 248.064 21.6227 248.156 26.0827C248.245 30.3932 246.731 34.2074 244.087 37.6161C243.323 38.6001 242.102 39.2467 241.391 40.1632C240.621 41.1549 241.551 43.2301 240.94 43.7596" stroke="#FAFD77" stroke-width="3" stroke-linecap="round"/>
<path d="M244.123 51.4644C244.413 52.6021 244.413 52.6021 244.123 51.4644" stroke="#FAFD77" stroke-width="3" stroke-linecap="round"/>
</svg>
