<svg width="206" height="112" viewBox="0 0 206 112" fill="none" xmlns="http://www.w3.org/2000/svg">
<path d="M2 49.6966C6.08456 58.3196 7.06775 69.7184 9.15649 79.1178C9.91815 82.5452 11.2618 86.4061 12.9556 89.4549C13.7064 90.8063 16.7552 87.3863 17.7266 86.4509C22.9423 81.4285 25.4168 75.1348 28.5939 68.7806C28.8731 68.2221 30.1905 64.9327 30.6259 66.1301C32.1731 70.3849 33.5493 74.6868 34.6459 79.0736C35.6566 83.1164 38.4166 91.5893 41.5816 94.4026C42.955 95.6234 53.5923 76.9191 54.8785 74.3468C56.4791 71.1455 57.8347 67.9101 59.2519 64.6281C60.6437 61.405 63.3916 58.6889 64.6413 55.4395C65.6064 52.9303 67.9987 45.4179 67.9987 48.1063" stroke="#FAFD77" stroke-width="3" stroke-linecap="round"/>
<path d="M94.2402 21.866C93.6193 34.9064 87.8789 47.3203 87.8789 60.564C87.8789 66.5922 89.3593 72.567 90.8829 78.3227C92.1131 82.9701 93.3258 83.7143 98.0394 83.8889C102.169 84.0418 106.548 82.3099 110.144 79.913" stroke="#FAFD77" stroke-width="3" stroke-linecap="round"/>
<path d="M75.1562 74.3469C79.651 67.3551 92.5057 62.8891 99.8064 59.2388" stroke="#FAFD77" stroke-width="3" stroke-linecap="round"/>
<path d="M139.563 108.539C139.563 116.267 141.948 93.2068 141.948 85.4792C141.948 77.6212 139.036 73.1373 134.836 66.837C133.515 64.8557 124.724 59.8488 126.222 56.8533C128.108 53.0817 131.938 50.2217 133.997 46.5161C135.391 44.0068 137.271 41.874 139.563 40.1548" stroke="#FAFD77" stroke-width="3" stroke-linecap="round"/>
<path d="M126.84 78.3225C132.165 75.6599 137.297 73.1993 142.699 70.7684C144.321 70.0383 149.267 69.2514 149.9 67.9854" stroke="#FAFD77" stroke-width="3" stroke-linecap="round"/>
<path d="M178.527 21.8659C178.675 15.24 180.4 1.25564 189.704 2.03096C198.238 2.74217 203.469 9.4441 203.928 17.4925C204.468 26.9307 201.787 32.5812 195.844 39.713C192.47 43.7626 190.425 46.6049 188.864 51.287" stroke="#FAFD77" stroke-width="3" stroke-linecap="round"/>
<path d="M188.068 80.708C188.068 81.2123 188.068 81.2123 188.068 80.708" stroke="#FAFD77" stroke-width="3" stroke-linecap="round"/>
</svg>
