<svg width="101" height="81" viewBox="0 0 101 81" fill="none" xmlns="http://www.w3.org/2000/svg">
<path fill-rule="evenodd" clip-rule="evenodd" d="M23.5287 30.3269C23.3562 29.3035 23.2263 28.2918 23.1423 27.2799C23.0158 25.7622 23.094 24.2328 23.0492 22.715C23.0296 22.0711 22.9526 20.3923 22.9836 20.1509C23.2654 18.0467 24.9636 17.7247 25.4604 17.6672C25.7007 17.6327 28.1682 17.3569 28.7006 20.0935C29.3537 23.4395 29.563 26.8085 29.3319 30.1085C29.8712 32.9141 30.7933 35.7081 32.011 38.2378C36.8564 48.2988 46.0896 49.2762 56.0932 49.1842C57.6316 49.1612 58.9092 50.3686 58.9896 51.8978C59.0701 53.4386 57.9249 54.7724 56.3933 54.9104C50.8017 55.4508 40.8808 59.9352 37.4508 64.6036C36.7333 65.5809 36.316 67.9381 35.7641 70.2493C34.9937 73.4574 34.0773 76.6309 33.0505 77.9647C32.8964 78.1716 31.0233 80.2874 30.4645 80.5978C29.1214 81.3337 28.0464 80.9082 27.4358 80.5173C26.8253 80.1263 26.1342 79.356 25.8582 78.0796C25.5696 76.7458 25.8134 74.0092 25.7685 73.4227C25.6053 71.2955 25.1799 67.1217 24.3117 63.5342C23.8438 61.6025 23.3447 59.8202 22.5191 58.9348C19.4629 55.6578 14.576 56.1408 10.4608 56.6812C9.9882 56.7387 9.51562 56.8077 9.04419 56.8652C7.36888 57.3596 5.59004 57.7275 3.71005 57.946C0.871108 58.2794 0.404306 55.6693 0.37901 55.4968C0.326118 55.1174 0.129475 53.1627 2.26932 52.3808C2.50274 52.3003 4.22521 51.9208 4.88867 51.7714C5.81313 51.5644 6.74793 51.4035 7.6862 51.254C17.3782 48.2414 22.6421 39.7785 23.5287 30.3269ZM26.8551 40.779C30.5139 48.3449 36.0665 52.0014 42.6481 53.6571H42.647C38.5375 55.8073 34.7993 58.498 32.8182 61.2001C32.0662 62.2235 31.3763 64.2816 30.7542 66.5928C30.4173 64.4426 29.962 62.1543 29.3607 60.1996C28.6765 57.9689 27.7554 56.1178 26.7275 55.014C24.7429 52.8868 22.2523 51.7024 19.5743 51.116C22.7801 48.2759 25.2109 44.7344 26.8551 40.779Z" fill="#FAFD77"/>
<path fill-rule="evenodd" clip-rule="evenodd" d="M80.6325 7.06736C80.5364 6.49713 80.464 5.93337 80.4173 5.36955C80.3468 4.52381 80.3904 3.67161 80.3654 2.82588C80.3545 2.46709 80.3115 1.53166 80.3288 1.39712C80.4858 0.224622 81.4321 0.0452019 81.7089 0.0131666C81.8428 -0.00605464 83.2178 -0.159756 83.5144 1.36513C83.8784 3.22959 83.995 5.10683 83.8662 6.94566C84.1667 8.50899 84.6805 10.0659 85.359 11.4754C88.059 17.0816 93.2038 17.6262 98.778 17.575C99.6353 17.5622 100.347 18.2349 100.392 19.087C100.437 19.9456 99.7987 20.6888 98.9453 20.7657C95.8295 21.0668 90.3014 23.5656 88.3902 26.1669C87.9904 26.7115 87.7578 28.025 87.4503 29.3128C87.021 31.1004 86.5104 32.8687 85.9382 33.6119C85.8524 33.7272 84.8087 34.9062 84.4973 35.0791C83.7489 35.4892 83.1499 35.2521 82.8097 35.0342C82.4695 34.8164 82.0844 34.3871 81.9306 33.676C81.7698 32.9327 81.9056 31.4078 81.8806 31.0811C81.7897 29.8958 81.5526 27.57 81.0689 25.571C80.8081 24.4946 80.53 23.5015 80.07 23.0082C78.367 21.1821 75.644 21.4513 73.3509 21.7524C73.0876 21.7844 72.8242 21.8229 72.5616 21.8549C71.628 22.1304 70.6368 22.3354 69.5893 22.4572C68.0074 22.643 67.7473 21.1886 67.7332 21.0925C67.7037 20.881 67.5941 19.7918 68.7865 19.3562C68.9166 19.3113 69.8763 19.0999 70.246 19.0166C70.7612 18.9012 71.282 18.8116 71.8049 18.7283C77.2054 17.0496 80.1386 12.334 80.6325 7.06736ZM82.4861 12.8914C84.5248 17.1073 87.6188 19.1447 91.2862 20.0673H91.2856C88.9957 21.2655 86.9127 22.7648 85.8088 24.2704C85.3898 24.8406 85.0054 25.9875 84.6587 27.2753C84.471 26.0772 84.2173 24.8021 83.8822 23.7129C83.501 22.47 82.9878 21.4385 82.415 20.8234C81.3091 19.6381 79.9213 18.9782 78.4291 18.6514C80.2154 17.0689 81.5699 15.0955 82.4861 12.8914Z" fill="#FAFD77"/>
</svg>
