<svg width="95" height="44" viewBox="0 0 95 44" fill="none" xmlns="http://www.w3.org/2000/svg">
<ellipse cx="47.0484" cy="21.6612" rx="45.8196" ry="18.326" transform="rotate(-4.23708 47.0484 21.6612)" fill="#0E0F0F"/>
<path d="M27.4408 21.0874L23.2762 21.3962C23.1627 19.8644 23.698 18.6455 24.8823 17.7394C26.0665 16.8334 27.8633 16.2911 30.2727 16.1124C31.0386 16.0557 31.7197 16.0453 32.316 16.0813C32.9271 16.1002 33.5361 16.1994 34.143 16.379C34.7647 16.5415 35.2881 16.7835 35.713 17.1049C36.1379 17.4264 36.4919 17.8734 36.775 18.4461C37.0741 19.0175 37.2532 19.7022 37.3124 20.5L37.7897 26.9383C37.8583 27.8638 38.1021 28.4473 38.5211 28.689L38.5424 28.9762L34.1146 29.3045L33.8184 27.9066C32.5225 29.2541 30.7656 30.01 28.5477 30.1745C26.7446 30.3081 25.3035 30.0219 24.2243 29.3158C23.1452 28.6096 22.5577 27.6103 22.4619 26.3179C22.366 25.0254 22.7835 24.0559 23.7143 23.4093C24.6438 22.7468 26.1791 22.2479 28.3202 21.9127C28.6062 21.8754 29.0187 21.8128 29.5577 21.7247C30.352 21.6176 30.9154 21.5358 31.2482 21.479C31.5956 21.4051 31.9653 21.3055 32.3571 21.1802C32.7637 21.0377 33.0323 20.8734 33.1629 20.6873C33.2923 20.4852 33.3457 20.2325 33.3233 19.9293C33.2511 18.956 32.2178 18.5433 30.2232 18.6912C28.2606 18.8367 27.3331 19.6354 27.4408 21.0874ZM33.5557 23.0647C33.0812 23.3727 32.0047 23.6771 30.3264 23.978C29.645 24.0927 29.1391 24.1944 28.8088 24.283C28.4773 24.3557 28.1407 24.4689 27.7991 24.6226C27.4564 24.7603 27.2283 24.9297 27.1148 25.1306C27.0014 25.3315 26.9559 25.5836 26.9784 25.8868C27.015 26.3814 27.2361 26.7661 27.6415 27.0409C28.0629 27.3145 28.6087 27.4264 29.2788 27.3768C30.651 27.275 31.7278 26.8663 32.509 26.1506C33.3062 25.4337 33.6663 24.5566 33.5894 23.5195L33.5557 23.0647Z" fill="#FAFD77"/>
<path d="M45.3915 19.7566L41.227 20.0654C41.1134 18.5336 41.6487 17.3146 42.833 16.4086C44.0172 15.5026 45.8141 14.9602 48.2235 14.7816C48.9893 14.7248 49.6704 14.7145 50.2667 14.7505C50.8778 14.7693 51.4868 14.8686 52.0938 15.0482C52.7155 15.2107 53.2388 15.4526 53.6637 15.7741C54.0887 16.0956 54.4427 16.5426 54.7258 17.1153C55.0249 17.6867 55.204 18.3713 55.2631 19.1692L55.7404 25.6075C55.809 26.5329 56.0529 27.1165 56.4719 27.3582L56.4932 27.6454L52.0653 27.9737L51.7691 26.5757C50.4732 27.9233 48.7163 28.6792 46.4984 28.8436C44.6953 28.9773 43.2542 28.6911 42.1751 27.9849C41.0959 27.2788 40.5084 26.2795 40.4126 24.987C40.3168 23.6946 40.7342 22.7251 41.665 22.0785C42.5945 21.4159 44.1299 20.9171 46.2709 20.5819C46.557 20.5446 46.9695 20.4819 47.5084 20.3938C48.3027 20.2868 48.8662 20.2049 49.1989 20.1482C49.5464 20.0743 49.916 19.9747 50.3078 19.8494C50.7144 19.7069 50.983 19.5426 51.1136 19.3565C51.243 19.1543 51.2965 18.9017 51.274 18.5985C51.2018 17.6252 50.1685 17.2125 48.174 17.3603C46.2114 17.5058 45.2839 18.3046 45.3915 19.7566ZM51.5065 21.7339C51.0319 22.0418 49.9555 22.3463 48.2771 22.6472C47.5957 22.7619 47.0899 22.8635 46.7595 22.9522C46.428 23.0249 46.0914 23.1381 45.7499 23.2918C45.4071 23.4295 45.179 23.5988 45.0656 23.7998C44.9521 24.0007 44.9066 24.2528 44.9291 24.5559C44.9658 25.0506 45.1868 25.4353 45.5922 25.7101C46.0136 25.9837 46.5594 26.0956 47.2296 26.0459C48.6018 25.9442 49.6785 25.5355 50.4597 24.8198C51.2569 24.1029 51.6171 23.2258 51.5402 22.1887L51.5065 21.7339Z" fill="#FAFD77"/>
<path d="M62.8836 27.1716L62.5749 23.0071L66.9309 22.6841L67.2397 26.8487L62.8836 27.1716ZM61.6827 16.1663L57.4463 16.4804C57.1103 11.9488 59.4634 9.49613 64.5056 9.12232C66.6278 8.96498 68.3135 9.30528 69.5629 10.1432C70.8271 10.964 71.5177 12.1642 71.6348 13.7439C71.7046 14.6853 71.5194 15.5413 71.0791 16.312C70.6537 17.0655 69.9233 17.8176 68.888 18.5682C68.0801 19.1415 67.5241 19.648 67.2197 20.0877C66.9314 20.5262 66.8067 21.0087 66.8457 21.5353L62.4897 21.8582C62.4104 20.7892 62.5762 19.8864 62.9868 19.1501C63.3975 18.4137 64.0221 17.7497 64.8607 17.1581C64.9517 17.0871 65.1195 16.9704 65.3642 16.8079C65.6236 16.6282 65.7988 16.5029 65.8898 16.432C65.9968 16.3599 66.1413 16.2529 66.3233 16.1111C66.5041 15.9533 66.6309 15.8235 66.7035 15.7219C66.791 15.6031 66.8773 15.4683 66.9624 15.3176C67.0634 15.1657 67.124 15.0088 67.1441 14.8469C67.1789 14.6678 67.1892 14.4826 67.1751 14.2911C67.1313 13.7007 66.8822 13.2619 66.4277 12.9748C65.988 12.6704 65.3772 12.5472 64.5953 12.6052C62.4891 12.7614 61.5182 13.9484 61.6827 16.1663Z" fill="#FAFD77"/>
</svg>
