<svg width="95" height="95" viewBox="0 0 95 95" fill="none" xmlns="http://www.w3.org/2000/svg">
<path d="M47.5 89.0625C36.4769 89.0625 25.9054 84.6836 18.1109 76.8891C10.3164 69.0946 5.9375 58.5231 5.9375 47.5C5.9375 36.4769 10.3164 25.9054 18.1109 18.1109C25.9054 10.3164 36.4769 5.9375 47.5 5.9375C58.5231 5.9375 69.0946 10.3164 76.8891 18.1109C84.6836 25.9054 89.0625 36.4769 89.0625 47.5C89.0625 58.5231 84.6836 69.0946 76.8891 76.8891C69.0946 84.6836 58.5231 89.0625 47.5 89.0625ZM47.5 95C60.0978 95 72.1796 89.9956 81.0876 81.0876C89.9956 72.1796 95 60.0978 95 47.5C95 34.9022 89.9956 22.8204 81.0876 13.9124C72.1796 5.00445 60.0978 0 47.5 0C34.9022 0 22.8204 5.00445 13.9124 13.9124C5.00445 22.8204 0 34.9022 0 47.5C0 60.0978 5.00445 72.1796 13.9124 81.0876C22.8204 89.9956 34.9022 95 47.5 95Z" fill="#FAFD77"/>
<path d="M25.4413 56.8041C26.1232 56.4104 26.9335 56.3037 27.694 56.5075C28.4545 56.7113 29.1029 57.2088 29.4966 57.8906C31.3201 61.0514 33.9441 63.676 37.1045 65.5001C40.2649 67.3242 43.8501 68.2834 47.4991 68.2813C51.1482 68.2834 54.7334 67.3242 57.8937 65.5001C61.0541 63.676 63.6782 61.0514 65.5016 57.8906C65.6951 57.5503 65.9541 57.2516 66.2635 57.0117C66.5729 56.7718 66.9267 56.5955 67.3046 56.4929C67.6824 56.3904 68.0768 56.3635 68.4651 56.414C68.8533 56.4645 69.2278 56.5912 69.5668 56.787C69.9059 56.9827 70.2029 57.2436 70.4407 57.5546C70.6785 57.8657 70.8525 58.2206 70.9526 58.5992C71.0526 58.9777 71.0768 59.3722 71.0238 59.7601C70.9708 60.1481 70.8415 60.5216 70.6435 60.8594C68.2989 64.9227 64.9254 68.2968 60.8624 70.642C56.7994 72.9873 52.1904 74.2209 47.4991 74.2188C42.8079 74.2209 38.1988 72.9873 34.1359 70.642C30.0729 68.2968 26.6993 64.9227 24.3548 60.8594C23.9611 60.1775 23.8544 59.3672 24.0582 58.6067C24.262 57.8462 24.7595 57.1978 25.4413 56.8041Z" fill="#FAFD77"/>
<path d="M55.2698 29.9089C54.9092 30.0586 54.5815 30.2779 54.3058 30.5544C54.0293 30.8301 53.81 31.1577 53.6603 31.5184C53.5106 31.8791 53.4336 32.2658 53.4336 32.6562C53.4336 33.0467 53.5106 33.4334 53.6603 33.7941C53.81 34.1547 54.0293 34.4823 54.3058 34.7581L58.1473 38.5937L54.3058 42.4294C54.0298 42.7054 53.8108 43.0331 53.6614 43.3937C53.512 43.7544 53.4352 44.1409 53.4352 44.5312C53.4352 44.9216 53.512 45.3081 53.6614 45.6688C53.8108 46.0294 54.0298 46.3571 54.3058 46.6331C54.5818 46.9091 54.9095 47.1281 55.2701 47.2775C55.6308 47.4269 56.0173 47.5037 56.4076 47.5037C56.798 47.5037 57.1845 47.4269 57.5452 47.2775C57.9058 47.1281 58.2335 46.9091 58.5095 46.6331L62.3451 42.7916L66.1808 46.6331C66.7382 47.1906 67.4943 47.5037 68.2826 47.5037C69.071 47.5037 69.8271 47.1906 70.3845 46.6331C70.942 46.0757 71.2551 45.3196 71.2551 44.5312C71.2551 43.7429 70.942 42.9868 70.3845 42.4294L66.543 38.5937L70.3845 34.7581C70.942 34.2007 71.2551 33.4446 71.2551 32.6562C71.2551 31.8679 70.942 31.1118 70.3845 30.5544C69.8271 29.9969 69.071 29.6837 68.2826 29.6837C67.4943 29.6837 66.7382 29.9969 66.1808 30.5544L62.3451 34.3959L58.5095 30.5544C58.2338 30.2779 57.9061 30.0586 57.5455 29.9089C57.1848 29.7592 56.7981 29.6822 56.4076 29.6822C56.0172 29.6822 55.6305 29.7592 55.2698 29.9089Z" fill="#FAFD77"/>
<path d="M25.5823 29.9089C25.2217 30.0586 24.894 30.2779 24.6183 30.5544C24.3418 30.8301 24.1225 31.1577 23.9728 31.5184C23.8231 31.8791 23.7461 32.2658 23.7461 32.6562C23.7461 33.0467 23.8231 33.4334 23.9728 33.7941C24.1225 34.1547 24.3418 34.4823 24.6183 34.7581L28.4598 38.5937L24.6183 42.4294C24.3423 42.7054 24.1233 43.0331 23.9739 43.3937C23.8245 43.7544 23.7477 44.1409 23.7477 44.5312C23.7477 44.9216 23.8245 45.3081 23.9739 45.6688C24.1233 46.0294 24.3423 46.3571 24.6183 46.6331C24.8943 46.9091 25.222 47.1281 25.5826 47.2775C25.9433 47.4269 26.3298 47.5037 26.7202 47.5037C27.1105 47.5037 27.497 47.4269 27.8577 47.2775C28.2183 47.1281 28.546 46.9091 28.822 46.6331L32.6577 42.7916L36.4933 46.6331C36.7693 46.9091 37.097 47.1281 37.4576 47.2775C37.8183 47.4269 38.2048 47.5037 38.5952 47.5037C38.9855 47.5037 39.372 47.4269 39.7327 47.2775C40.0933 47.1281 40.421 46.9091 40.697 46.6331C40.973 46.3571 41.192 46.0294 41.3414 45.6688C41.4908 45.3081 41.5677 44.9216 41.5677 44.5312C41.5677 44.1409 41.4908 43.7544 41.3414 43.3937C41.192 43.0331 40.973 42.7054 40.697 42.4294L36.8555 38.5937L40.697 34.7581C40.973 34.4821 41.192 34.1544 41.3414 33.7938C41.4908 33.4331 41.5677 33.0466 41.5677 32.6562C41.5677 32.2659 41.4908 31.8794 41.3414 31.5187C41.192 31.1581 40.973 30.8304 40.697 30.5544C40.421 30.2783 40.0933 30.0594 39.7327 29.91C39.372 29.7606 38.9855 29.6837 38.5952 29.6837C38.2048 29.6837 37.8183 29.7606 37.4576 29.91C37.097 30.0594 36.7693 30.2783 36.4933 30.5544L32.6577 34.3959L28.822 30.5544C28.5463 30.2779 28.2187 30.0586 27.858 29.9089C27.4973 29.7592 27.1106 29.6822 26.7202 29.6822C26.3297 29.6822 25.943 29.7592 25.5823 29.9089Z" fill="#FAFD77"/>
</svg>
