<svg width="115" height="102" viewBox="0 0 115 102" fill="none" xmlns="http://www.w3.org/2000/svg">
<path fill-rule="evenodd" clip-rule="evenodd" d="M78.9706 19.2122C80.8886 18.5216 82.9071 17.6038 84.4635 16.2751C86.3122 14.6969 87.064 12.6643 87.5688 10.5248C88.217 7.77597 88.476 4.84784 89.262 2.0946C89.553 1.07216 90.113 0.68567 90.3533 0.51415C90.9607 0.080893 91.5747 -0.0349162 92.1523 0.0085208C92.8368 0.0586405 93.7772 0.320358 94.3956 1.47979C94.4838 1.64575 94.5984 1.89858 94.6755 2.24497C94.7318 2.49891 94.7681 3.29301 94.8277 3.62046C94.9765 4.42683 95.101 5.23322 95.2179 6.04405C95.607 8.74271 95.8308 11.0348 97.0599 13.5141C98.7277 16.8799 100.399 18.9393 102.665 19.8514C104.857 20.7335 107.477 20.5676 110.825 19.876C111.143 19.798 111.459 19.7312 111.771 19.6766C113.247 19.416 114.658 20.395 114.947 21.8807C115.237 23.3654 114.299 24.8122 112.837 25.1385C112.531 25.2064 112.23 25.271 111.933 25.3301C107.409 26.4617 102.171 30.5002 99.1279 34.0364C98.1898 35.1268 96.8163 38.1752 95.4152 40.1198C94.3812 41.5544 93.2194 42.5 92.2438 42.8341C91.5901 43.0591 91.039 43.0246 90.5837 42.911C89.9223 42.7461 89.3734 42.3841 88.9523 41.8083C88.723 41.4931 88.5102 41.071 88.4088 40.5319C88.3603 40.2724 88.3548 39.6131 88.3559 39.3146C88.0704 38.3222 87.7209 37.3532 87.4663 36.3519C86.8589 33.9629 85.6673 32.4504 84.2519 30.4523C82.928 28.5823 81.506 27.4073 79.4215 26.4695C79.1503 26.4026 76.9622 25.8613 76.1895 25.5506C75.0607 25.0951 74.5227 24.3321 74.3276 23.9211C73.9958 23.2239 73.9616 22.6147 74.0278 22.1068C74.1259 21.3573 74.4588 20.7158 75.0496 20.1978C75.4156 19.876 75.9624 19.563 76.6943 19.4104C77.2598 19.2912 78.76 19.2222 78.9706 19.2122ZM91.8073 15.3184C91.9087 15.5467 92.0167 15.7762 92.1314 16.0078C94.5741 20.9374 97.3057 23.6895 100.626 25.0249L100.737 25.0684C98.5161 26.7346 96.5054 28.5968 94.9687 30.3821C94.336 31.1172 93.4983 32.6442 92.5933 34.2102C91.7709 31.5093 90.4261 29.6003 88.7351 27.2113C87.4432 25.388 86.0895 24.0159 84.4261 22.8976C85.7169 22.2283 86.9482 21.4442 88.0208 20.5286C89.8065 19.0039 90.9871 17.2374 91.8073 15.3184Z" fill="black"/>
<path fill-rule="evenodd" clip-rule="evenodd" d="M29.2485 37.2154C29.0309 35.9071 28.8669 34.6136 28.761 33.3199C28.6014 31.3795 28.7001 29.4242 28.6435 27.4837C28.6188 26.6605 28.5216 24.5143 28.5608 24.2056C28.9162 21.5154 31.0592 21.1037 31.686 21.0302C31.9893 20.9861 35.1029 20.6335 35.7747 24.1322C36.5988 28.41 36.8629 32.7172 36.5713 36.9362C37.2518 40.5231 38.4154 44.0952 39.952 47.3293C46.0662 60.1922 57.717 61.4418 70.34 61.3242C72.2814 61.2948 73.8934 62.8383 73.995 64.7934C74.0965 66.7633 72.6514 68.4686 70.7188 68.645C63.6629 69.3359 51.1443 75.0691 46.8162 81.0375C45.9108 82.287 45.3842 85.3007 44.6877 88.2555C43.7156 92.3569 42.5593 96.4142 41.2636 98.1194C41.0692 98.384 38.7056 101.089 38.0004 101.486C36.3058 102.427 34.9492 101.883 34.1787 101.383C33.4083 100.883 32.5363 99.8981 32.1881 98.2664C31.8239 96.5611 32.1315 93.0624 32.0749 92.3126C31.8689 89.593 31.3321 84.2568 30.2366 79.6703C29.6461 77.2006 29.0164 74.922 27.9746 73.7901C24.1181 69.6005 17.9516 70.218 12.7588 70.9089C12.1625 70.9824 11.5661 71.0706 10.9713 71.1441C8.85727 71.7763 6.61264 72.2466 4.24038 72.5259C0.658054 72.9522 0.0690195 69.6152 0.0370993 69.3947C-0.0296431 68.9096 -0.277777 66.4106 2.42239 65.4109C2.71693 65.308 4.89043 64.8229 5.72761 64.6318C6.89415 64.3672 8.07373 64.1614 9.25768 63.9703C21.4875 60.1188 28.1298 49.2992 29.2485 37.2154ZM33.446 50.5782C38.0629 60.2511 45.0693 64.9258 53.3744 67.0427H53.373C48.1874 69.7916 43.4704 73.2316 40.9705 76.6862C40.0216 77.9946 39.151 80.6259 38.3661 83.5807C37.941 80.8317 37.3664 77.9062 36.6076 75.4071C35.7443 72.5552 34.5821 70.1886 33.2849 68.7774C30.7806 66.0578 27.6379 64.5436 24.2587 63.7939C28.3039 60.1629 31.3712 55.6352 33.446 50.5782Z" fill="#0E0F0F"/>
</svg>
