<svg width="45" height="45" viewBox="0 0 45 45" fill="none" xmlns="http://www.w3.org/2000/svg">
<path d="M34.6001 8.63989C30.4605 4.50024 23.7193 4.50024 19.584 8.63989L8.1143 20.1008C8.03959 20.1755 8.00004 20.2766 8.00004 20.3821C8.00004 20.4875 8.03959 20.5886 8.1143 20.6633L9.73588 22.2849C9.81 22.3587 9.91034 22.4001 10.0149 22.4001C10.1195 22.4001 10.2199 22.3587 10.294 22.2849L21.7637 10.824C23.1875 9.40015 25.0816 8.61792 27.0943 8.61792C29.107 8.61792 31.001 9.40015 32.4205 10.824C33.8443 12.2478 34.6265 14.1418 34.6265 16.1501C34.6265 18.1628 33.8443 20.0525 32.4205 21.4763L20.731 33.1614L18.837 35.0554C17.066 36.8264 14.1875 36.8264 12.4165 35.0554C11.5596 34.1985 11.0894 33.0603 11.0894 31.8474C11.0894 30.6345 11.5596 29.4963 12.4165 28.6394L24.0137 17.0466C24.3081 16.7566 24.6949 16.594 25.108 16.594H25.1123C25.5254 16.594 25.9078 16.7566 26.1978 17.0466C26.4922 17.3411 26.6504 17.7278 26.6504 18.1409C26.6504 18.5496 26.4878 18.9363 26.1978 19.2263L16.7188 28.6965C16.6441 28.7712 16.6045 28.8723 16.6045 28.9778C16.6045 29.0833 16.6441 29.1843 16.7188 29.259L18.3404 30.8806C18.4145 30.9544 18.5148 30.9958 18.6194 30.9958C18.724 30.9958 18.8244 30.9544 18.8985 30.8806L28.3731 21.406C29.2476 20.5315 29.7266 19.3713 29.7266 18.1365C29.7266 16.9016 29.2432 15.7371 28.3731 14.8669C26.5669 13.0608 23.6314 13.0652 21.8252 14.8669L20.7002 15.9963L10.2325 26.4597C9.522 27.166 8.95883 28.0063 8.57562 28.9319C8.1924 29.8575 7.99676 30.85 8.00004 31.8518C8.00004 33.8865 8.79545 35.7981 10.2325 37.2351C11.7222 38.7205 13.6734 39.4631 15.6246 39.4631C17.5757 39.4631 19.5269 38.7205 21.0122 37.2351L34.6001 23.656C36.5996 21.6521 37.7071 18.9846 37.7071 16.1501C37.7115 13.3113 36.604 10.6438 34.6001 8.63989Z" fill="#0E0F0F"/>
</svg>
