<svg width="228" height="68" viewBox="0 0 228 68" fill="none" xmlns="http://www.w3.org/2000/svg">
<ellipse cx="113.878" cy="33.87" rx="112.242" ry="20.2397" transform="rotate(-7.05378 113.878 33.87)" fill="#FAFD77"/>
<path d="M24.4456 38.1623L28.7091 37.6347L32.744 46.2041L34.3064 36.9421L38.2603 36.4529L42.0331 45.0547L43.8338 35.7632L48.1211 35.2327L44.5231 48.7609L40.5693 49.2502L36.8109 40.961L35.1625 49.9192L31.2325 50.4055L24.4456 38.1623Z" fill="#0E0F0F"/>
<path d="M65.1225 41.9558C64.7654 43.4993 63.9859 44.7566 62.784 45.7275C61.5821 46.6985 60.0364 47.3008 58.1468 47.5346C55.7491 47.8313 53.775 47.4469 52.2244 46.3812C50.6896 45.3136 49.7906 43.7159 49.5273 41.5881C49.266 39.4762 49.7495 37.7155 50.9777 36.306C52.2059 34.8966 54.0268 34.0425 56.4404 33.7438C58.9334 33.4353 60.9264 33.8417 62.4193 34.9628C63.9262 36.0661 64.8261 37.8008 65.1188 40.1667L65.1866 40.7145L54.1587 42.0791C54.2746 43.016 54.6696 43.7329 55.3438 44.2299C56.0159 44.711 56.8363 44.8916 57.8049 44.7717C59.3928 44.5752 60.3632 43.8183 60.7161 42.501L65.1225 41.9558ZM53.9477 39.3967L60.4263 38.5951C60.2487 37.8109 59.8376 37.225 59.1931 36.8372C58.5625 36.4316 57.7867 36.2857 56.8657 36.3997C55.9448 36.5137 55.22 36.8452 54.6914 37.3942C54.1768 37.9254 53.9289 38.5929 53.9477 39.3967Z" fill="#0E0F0F"/>
<path d="M82.3583 39.8231C82.0011 41.3666 81.2216 42.6239 80.0197 43.5948C78.8179 44.5658 77.2722 45.1681 75.3826 45.4019C72.9849 45.6986 71.0107 45.3141 69.4601 44.2485C67.9254 43.1809 67.0264 41.5832 66.7631 39.4554C66.5018 37.3435 66.9852 35.5828 68.2134 34.1733C69.4416 32.7638 71.2625 31.9098 73.6761 31.6111C76.1691 31.3026 78.1621 31.709 79.6551 32.8301C81.162 33.9334 82.0618 35.6681 82.3545 38.034L82.4223 38.5818L71.3944 39.9464C71.5104 40.8833 71.9054 41.6002 72.5795 42.0971C73.2517 42.5782 74.0721 42.7589 75.0407 42.639C76.6286 42.4425 77.599 41.6856 77.9519 40.3683L82.3583 39.8231ZM71.1834 37.264L77.662 36.4624C77.4844 35.6782 77.0733 35.0923 76.4288 34.7045C75.7982 34.2989 75.0225 34.153 74.1015 34.267C73.1805 34.3809 72.4557 34.7125 71.9272 35.2615C71.4125 35.7927 71.1646 36.4602 71.1834 37.264Z" fill="#0E0F0F"/>
<path d="M99.594 37.6904C99.2369 39.2339 98.4573 40.4912 97.2555 41.4621C96.0536 42.433 94.5079 43.0354 92.6183 43.2692C90.2206 43.5659 88.2464 43.1814 86.6958 42.1158C85.1611 41.0482 84.2621 39.4505 83.9988 37.3227C83.7375 35.2108 84.221 33.4501 85.4492 32.0406C86.6774 30.6311 88.4983 29.7771 90.9119 29.4784C93.4049 29.1699 95.3978 29.5763 96.8908 30.6974C98.3977 31.8007 99.2975 33.5353 99.5903 35.9013L99.6581 36.4491L88.6302 37.8137C88.7461 38.7505 89.1411 39.4675 89.8153 39.9644C90.4874 40.4455 91.3078 40.6262 92.2764 40.5063C93.8643 40.3098 94.8347 39.5529 95.1876 38.2356L99.594 37.6904ZM88.4192 35.1313L94.8978 34.3297C94.7201 33.5455 94.3091 32.9596 93.6646 32.5718C93.034 32.1662 92.2582 32.0203 91.3372 32.1343C90.4163 32.2482 89.6915 32.5797 89.1629 33.1288C88.6482 33.66 88.4003 34.3275 88.4192 35.1313Z" fill="#0E0F0F"/>
<path d="M116.83 35.5577C116.473 37.1012 115.693 38.3585 114.491 39.3294C113.289 40.3003 111.744 40.9027 109.854 41.1365C107.456 41.4332 105.482 41.0487 103.932 39.9831C102.397 38.9155 101.498 37.3178 101.235 35.19C100.973 33.0781 101.457 31.3174 102.685 29.9079C103.913 28.4984 105.734 27.6444 108.148 27.3457C110.641 27.0372 112.634 27.4436 114.127 28.5647C115.633 29.668 116.533 31.4026 116.826 33.7686L116.894 34.3164L105.866 35.681C105.982 36.6178 106.377 37.3348 107.051 37.8317C107.723 38.3128 108.544 38.4935 109.512 38.3736C111.1 38.1771 112.07 37.4202 112.423 36.1029L116.83 35.5577ZM105.655 32.9986L112.134 32.1969C111.956 31.4128 111.545 30.8269 110.9 30.4391C110.27 30.0334 109.494 29.8876 108.573 30.0016C107.652 30.1155 106.927 30.447 106.399 30.9961C105.884 31.5273 105.636 32.1948 105.655 32.9986Z" fill="#0E0F0F"/>
<path d="M122.131 21.601L124.271 38.8932L120.269 39.3883L118.13 22.0962L122.131 21.601Z" fill="#0E0F0F"/>
<path d="M141.635 28.6916L137.228 29.2369C137.025 28.5043 136.613 27.9749 135.992 27.6487C135.385 27.3046 134.605 27.1915 133.653 27.3094C132.573 27.443 131.743 27.9004 131.162 28.6816C130.598 29.4608 130.387 30.43 130.531 31.5892C130.674 32.7483 131.114 33.637 131.852 34.2551C132.603 34.8554 133.519 35.0887 134.599 34.9551C135.52 34.8411 136.252 34.5086 136.797 33.9576C137.355 33.3887 137.618 32.7113 137.585 31.9254L142.111 31.3654C142.192 33.0643 141.576 34.5351 140.263 35.7778C138.963 37.0026 137.186 37.7545 134.931 38.0335C132.549 38.3283 130.558 37.9378 128.958 36.8622C127.374 35.7846 126.452 34.1978 126.193 32.1018C125.929 29.974 126.445 28.2094 127.738 26.8079C129.046 25.3886 130.97 24.5217 133.511 24.2073C135.718 23.9342 137.514 24.1875 138.901 24.9672C140.287 25.7469 141.198 26.9883 141.635 28.6916Z" fill="#0E0F0F"/>
<path d="M146.407 34.7272C144.793 33.6695 143.855 32.0767 143.591 29.9489C143.328 27.8211 143.843 26.0565 145.137 24.655C146.444 23.2357 148.369 22.3689 150.909 22.0545C153.45 21.7401 155.519 22.1128 157.117 23.1726C158.714 24.2165 159.644 25.8023 159.907 27.93C160.17 30.0578 159.648 31.8314 158.34 33.2507C157.049 34.668 155.14 35.5329 152.616 35.8453C150.091 36.1577 148.021 35.785 146.407 34.7272ZM148.635 26.5437C148.023 27.3288 147.788 28.293 147.929 29.4363C148.071 30.5796 148.534 31.4574 149.319 32.0696C150.104 32.6818 151.076 32.9162 152.235 32.7728C153.379 32.6313 154.256 32.168 154.869 31.3829C155.479 30.5819 155.713 29.6097 155.572 28.4664C155.432 27.339 154.97 26.4692 154.185 25.857C153.398 25.2289 152.433 24.9856 151.289 25.1271C150.13 25.2705 149.246 25.7427 148.635 26.5437Z" fill="#0E0F0F"/>
<path d="M165.824 22.6272C167.136 20.8527 168.721 19.8505 170.579 19.6206C171.818 19.4673 172.913 19.5897 173.865 19.9878C174.817 20.3859 175.52 20.9842 175.974 21.7825C177.173 19.7478 178.836 18.5989 180.964 18.3356C183.012 18.0821 184.507 18.4372 185.449 19.4009C186.404 20.3467 187.009 21.8439 187.262 23.8922L188.14 30.9901L184.139 31.4852L183.367 25.2448C183.196 23.8634 182.872 22.8717 182.394 22.2698C181.916 21.6678 181.138 21.4337 180.058 21.5673C178.931 21.7068 178.071 22.184 177.478 22.9989C176.884 23.798 176.658 24.7771 176.802 25.9362L177.589 32.2957L173.73 32.7732L172.958 26.5328C172.787 25.1513 172.463 24.1596 171.985 23.5577C171.508 22.9558 170.729 22.7216 169.649 22.8552C168.522 22.9947 167.662 23.4719 167.07 24.2869C166.475 25.0859 166.25 26.065 166.393 27.2242L167.18 33.5837L163.179 34.0788L161.584 21.1931L165.586 20.6979L165.824 22.6272Z" fill="#0E0F0F"/>
<path d="M205.404 24.5977C205.047 26.1412 204.268 27.3985 203.066 28.3694C201.864 29.3404 200.318 29.9427 198.429 30.1765C196.031 30.4732 194.057 30.0887 192.506 29.0231C190.971 27.9555 190.072 26.3578 189.809 24.23C189.548 22.1181 190.031 20.3574 191.259 18.9479C192.488 17.5384 194.309 16.6844 196.722 16.3857C199.215 16.0772 201.208 16.4836 202.701 17.6047C204.208 18.708 205.108 20.4427 205.401 22.8086L205.468 23.3564L194.44 24.721C194.556 25.6579 194.951 26.3748 195.625 26.8717C196.298 27.3528 197.118 27.5335 198.087 27.4136C199.675 27.2171 200.645 26.4602 200.998 25.1429L205.404 24.5977ZM194.229 22.0386L200.708 21.237C200.53 20.4528 200.119 19.8669 199.475 19.4791C198.844 19.0735 198.068 18.9276 197.147 19.0416C196.226 19.1555 195.502 19.4871 194.973 20.0361C194.458 20.5673 194.211 21.2348 194.229 22.0386Z" fill="#0E0F0F"/>
</svg>
