<svg width="85" height="85" viewBox="0 0 85 85" fill="none" xmlns="http://www.w3.org/2000/svg">
<path fill-rule="evenodd" clip-rule="evenodd" d="M80.4767 26.7491C64.5234 56.4141 32.6549 68.4745 3.05598 51.7739C2.07063 51.2178 0.82109 51.5654 0.264981 52.5386C-0.291128 53.5292 0.0564778 54.7804 1.04183 55.3365C32.7678 73.2537 66.9841 60.4806 84.0845 28.6955C84.6197 27.705 84.2461 26.4535 83.2504 25.9148C82.2546 25.3935 81.012 25.7586 80.4767 26.7491Z" fill="#0E0F0F"/>
<path d="M27.963 39.0514C31.2584 39.0514 33.93 36.38 33.93 33.0846C33.93 29.7891 31.2584 27.1177 27.963 27.1177C24.6675 27.1177 21.9961 29.7891 21.9961 33.0846C21.9961 36.38 24.6675 39.0514 27.963 39.0514Z" fill="#0E0F0F"/>
<path d="M52.6667 32.7039C55.8977 32.7039 58.517 30.0847 58.517 26.8537C58.517 23.6226 55.8977 21.0034 52.6667 21.0034C49.4356 21.0034 46.8164 23.6226 46.8164 26.8537C46.8164 30.0847 49.4356 32.7039 52.6667 32.7039Z" fill="#0E0F0F"/>
</svg>
