<svg width="1680" height="304" viewBox="0 0 1680 304" fill="none" xmlns="http://www.w3.org/2000/svg">
<path d="M32.7585 102.564C54.8671 80.9573 84.525 70.1539 121.732 70.1539C158.939 70.1539 188.462 80.9573 210.301 102.564C232.14 123.897 243.06 152.342 243.06 187.897C243.06 223.453 232.14 251.761 210.301 272.821C188.462 293.607 158.939 304 121.732 304C84.2553 304 54.5975 293.607 32.7585 272.821C10.9195 251.761 0 223.453 0 187.897C0 152.342 10.9195 123.897 32.7585 102.564ZM179.969 128.41C165.949 114.188 146.537 107.077 121.732 107.077C96.9273 107.077 77.3801 114.188 63.0904 128.41C48.8007 142.632 41.6558 162.188 41.6558 187.077C41.6558 211.966 48.8007 231.521 63.0904 245.744C77.3801 259.966 96.9273 267.077 121.732 267.077C146.537 267.077 165.949 259.966 179.969 245.744C194.259 231.521 201.404 211.966 201.404 187.077C201.404 162.188 194.259 142.632 179.969 128.41Z" fill="white"/>
<path d="M338.425 77.1282V115.282C360.803 85.1966 390.596 70.1539 427.803 70.1539C458.809 70.1539 480.244 78.359 492.107 94.7692C504.24 111.179 510.306 135.111 510.306 166.564V297.846H471.077V169.846C471.077 146.872 467.167 130.188 459.348 119.795C451.53 109.128 438.049 103.795 418.906 103.795C395.719 103.795 376.441 111.453 361.073 126.769C345.975 141.812 338.425 161.504 338.425 185.846V297.846H299.196V77.1282H338.425Z" fill="white"/>
<path d="M767.116 0V115.282C789.495 85.1966 819.287 70.1539 856.495 70.1539C887.5 70.1539 908.935 78.359 920.798 94.7692C932.931 111.179 938.997 135.111 938.997 166.564V297.846H899.768V169.846C899.768 146.872 895.859 130.188 888.04 119.795C880.221 109.128 866.74 103.795 847.597 103.795C824.41 103.795 805.132 111.453 789.764 126.769C774.666 141.812 767.116 161.504 767.116 185.846V297.846H727.887V0H767.116Z" fill="white"/>
<path d="M1233.02 195.692H1036.87C1036.87 217.299 1044.02 234.667 1058.31 247.795C1072.6 260.65 1091.34 267.077 1114.52 267.077C1131.78 267.077 1146.47 263.795 1158.61 257.231C1171.01 250.667 1179.37 241.368 1183.68 229.333H1229.38C1221.83 253.128 1207.95 271.59 1187.73 284.718C1167.77 297.573 1143.37 304 1114.52 304C1077.86 304 1048.74 293.607 1027.17 272.821C1005.87 251.761 995.219 223.453 995.219 187.897C995.219 152.068 1006 123.487 1027.57 102.154C1049.14 80.8205 1078.13 70.1539 1114.52 70.1539C1151.73 70.1539 1180.72 80.6838 1201.48 101.744C1222.51 122.53 1233.02 151.248 1233.02 187.897V195.692ZM1037.68 167.385H1190.96C1188 148.513 1179.77 133.744 1166.29 123.077C1152.81 112.41 1135.55 107.077 1114.52 107.077C1093.76 107.077 1076.51 112.41 1062.76 123.077C1049.28 133.744 1040.92 148.513 1037.68 167.385Z" fill="white"/>
<path d="M1512.93 195.692H1316.78C1316.78 217.299 1323.93 234.667 1338.22 247.795C1352.51 260.65 1371.24 267.077 1394.43 267.077C1411.69 267.077 1426.38 263.795 1438.51 257.231C1450.92 250.667 1459.27 241.368 1463.59 229.333H1509.29C1501.74 253.128 1487.85 271.59 1467.63 284.718C1447.68 297.573 1423.28 304 1394.43 304C1357.76 304 1328.64 293.607 1307.08 272.821C1285.78 251.761 1275.13 223.453 1275.13 187.897C1275.13 152.068 1285.91 123.487 1307.48 102.154C1329.05 80.8205 1358.03 70.1539 1394.43 70.1539C1431.64 70.1539 1460.62 80.6838 1481.38 101.744C1502.41 122.53 1512.93 151.248 1512.93 187.897V195.692ZM1317.59 167.385H1470.87C1467.9 148.513 1459.68 133.744 1446.2 123.077C1432.72 112.41 1415.46 107.077 1394.43 107.077C1373.67 107.077 1356.42 112.41 1342.66 123.077C1329.18 133.744 1320.83 148.513 1317.59 167.385Z" fill="white"/>
<path d="M1587.39 20.9231H1626.62V77.1282H1680V110.769H1626.62V241.641C1626.62 250.94 1628.64 257.504 1632.68 261.333C1636.73 265.162 1643.6 267.077 1653.31 267.077C1661.67 267.077 1670.56 265.983 1680 263.795V300.308C1664.09 302.769 1651.96 304 1643.6 304C1624.46 304 1610.3 299.897 1601.14 291.692C1591.97 283.214 1587.39 270.359 1587.39 253.128V110.769H1549.37V77.1282H1587.39V20.9231Z" fill="white"/>
</svg>
