<svg width="325" height="110" viewBox="0 0 325 110" fill="none" xmlns="http://www.w3.org/2000/svg">
<path d="M2 28.9343C6.306 31.643 12.9716 32.6022 17.9684 33.3689C32.0968 35.5368 46.4772 35.1907 60.684 36.2727C73.9208 37.2808 86.784 39.3953 100.128 39.208C108.214 39.0946 117.031 38.0351 124.958 39.0399" stroke="#FAFD77" stroke-width="3" stroke-linecap="round"/>
<path d="M43.6213 36.993C44.9726 51.7469 45.2773 69.3336 57.3586 80.1198C68.2883 89.8778 86.3156 83.5171 97.0991 76.4799C105.35 71.0951 112.218 63.3681 119.194 56.4632C121.028 54.6483 122.699 51.4994 123.643 49.0821C124.177 47.7142 124.305 45.4821 125.482 44.7526" stroke="#FAFD77" stroke-width="3" stroke-linecap="round"/>
<path d="M67.9372 38.0898C62.2168 45.897 65.9923 62.7739 68.2451 69.9855C70.0064 75.623 76.3818 82.4735 82.4784 83.2918" stroke="#FAFD77" stroke-width="3" stroke-linecap="round"/>
<path d="M91.4808 39.7321C91.767 45.0587 88.1692 52.114 88.9174 60.2809C89.3911 65.4533 94.4979 72.672 99.6816 74.1188" stroke="#FAFD77" stroke-width="3" stroke-linecap="round"/>
<path d="M93.3386 40.5116C93.5464 44.8002 92.3112 50.1755 93.2206 54.3273C93.8319 57.1184 97.2328 49.4127 97.3678 49.1157C100.746 41.6845 96.7779 62.4618 98.8466 55.7677C99.9964 52.0471 104.158 41.5495 103.318 45.4646C102.273 50.3325 100.872 55.2615 99.5468 59.9601C98.2604 64.5212 106.711 42.8362 104.46 54.9085C103.554 59.7659 102.044 64.3967 99.8732 68.2706C97.9686 71.6699 102.967 60.7125 104.658 57.0761C107.269 51.4624 105.036 61.9352 104.723 64.2601C104.062 69.1703 102.859 70.1572 104.93 65.2191C105.13 64.7412 110.729 52.3477 111.573 54.0269C112.52 55.9124 110.288 62.6892 110.423 60.4595C110.653 56.6357 116.148 50.5347 118.093 48.8281C120.623 46.6069 119.589 52.4139 119.538 54.6779" stroke="#FAFD77" stroke-width="3" stroke-linecap="round"/>
<path d="M182.07 40.4568C190.991 39.6398 199.569 40.8891 208.418 40.0785C214.262 39.5433 219.909 39.8291 225.753 39.6967C235.574 39.4743 245.205 38.7614 255.056 39.1986C262.396 39.5244 269.591 40.5514 276.887 41.2314C285.209 42.0069 293.924 41.2839 302.287 41.0153C308.457 40.8172 314.765 41.0768 320.863 41.9896" stroke="#FAFD77" stroke-width="3" stroke-linecap="round"/>
<path d="M227.836 42.4379C230.914 47.6654 231.284 54.3669 233.652 60.0013C236.647 67.1248 239.906 72.1419 245.747 76.9897C255.984 85.4863 266.925 88.4025 279.982 84.0957C293.857 79.5186 304.933 70.8319 312.267 58.1142C313.105 56.661 322.069 44.4473 320.3 42.9785" stroke="#FAFD77" stroke-width="3" stroke-linecap="round"/>
<path d="M252.729 40.6327C252.053 51.2899 257.415 67.3887 268.129 72.1715C276.975 76.1205 285.535 76.5645 294.985 75.6989" stroke="#FAFD77" stroke-width="3" stroke-linecap="round"/>
<path d="M275.957 44.2034C278.425 51.4128 280.988 58.524 287.739 62.8363C292.802 66.0698 300.717 66.1456 306.539 67.0434" stroke="#FAFD77" stroke-width="3" stroke-linecap="round"/>
<path d="M283.114 45.765C282.787 48.8265 281.302 51.6484 281.198 54.7657C281.181 55.2958 282.4 52.4944 282.961 51.6754C284.955 48.7653 285.009 49.3749 285.087 52.5597C285.135 54.4903 285.138 60.275 284.962 58.3519C284.761 56.1598 289.833 49.8198 289.707 51.1731C289.508 53.3176 288.529 56.0099 288.723 58.123C288.935 60.4361 290.46 53.8129 291.294 51.6443C291.692 50.6099 292.86 45.9661 292.076 49.6458C291.423 52.7084 290.281 55.7536 290.571 58.9172C290.748 60.8464 291.861 55.5705 292.26 54.6004C293.732 51.0205 295.766 39.7954 296.119 43.6489C296.448 47.2325 295.144 51.2492 294.354 54.7168C293.288 59.401 292.969 56.7392 294.681 54.0703C295.607 52.6272 298.426 46.9258 298.435 47.0208C298.929 52.4084 297.444 58.7691 296.642 64.1033C296.628 64.1986 295.806 69.442 296.306 66.7546C297.36 61.0907 299.354 55.3832 301.092 49.8991C301.718 47.9211 302.087 46.5897 301.927 49.7456C301.769 52.8495 301.428 55.9265 300.999 59.0026C300.821 60.2825 299.958 64.2178 301.195 61.1427C302.821 57.1031 304.971 53.4424 306.968 49.5921C308.505 46.6297 306.925 49.2358 306.454 50.7183C305.455 53.8619 302.278 63.2321 303.22 60.0709C304.167 56.8918 305.188 53.7023 306.009 50.4893C307.138 46.0685 304.735 55.9924 304.561 56.5953C304.015 58.4867 301.583 62.966 303.804 59.2852C306.05 55.5637 307.265 50.7204 310.047 47.3832C310.305 47.0732 310.032 52.4587 309.813 53.2624C309.215 55.4617 311.351 50.2556 311.718 49.6195C315.123 43.7179 314.506 47.8864 314.454 52.529C314.399 57.5476 314.959 53.8591 316.938 50.9912" stroke="#FAFD77" stroke-width="3" stroke-linecap="round"/>
</svg>
