<svg width="85" height="43" viewBox="0 0 85 43" fill="none" xmlns="http://www.w3.org/2000/svg">
<path fill-rule="evenodd" clip-rule="evenodd" d="M80.4767 5.74579C64.5234 35.4107 32.6549 47.4712 3.05598 30.7705C2.07063 30.2144 0.82109 30.5621 0.264981 31.5353C-0.291128 32.5259 0.0564778 33.7771 1.04183 34.3332C32.7678 52.2503 66.9841 39.4773 84.0845 7.69216C84.6197 6.70159 84.2461 5.45018 83.2504 4.91145C82.2546 4.3901 81.012 4.75522 80.4767 5.74579Z" fill="#FAFD77"/>
<path d="M27.963 18.048C31.2584 18.048 33.93 15.3766 33.93 12.0811C33.93 8.7857 31.2584 6.11426 27.963 6.11426C24.6675 6.11426 21.9961 8.7857 21.9961 12.0811C21.9961 15.3766 24.6675 18.048 27.963 18.048Z" fill="#FAFD77"/>
<path d="M52.6667 11.7005C55.8977 11.7005 58.517 9.0813 58.517 5.85026C58.517 2.61923 55.8977 0 52.6667 0C49.4356 0 46.8164 2.61923 46.8164 5.85026C46.8164 9.0813 49.4356 11.7005 52.6667 11.7005Z" fill="#FAFD77"/>
</svg>
