<svg width="86" height="88" viewBox="0 0 86 88" fill="none" xmlns="http://www.w3.org/2000/svg">
<path d="M33.8373 1.15698C35.8598 0.530437 38.1104 0.545434 40.5569 1.27344C46.56 3.05662 50.1643 10.5952 46.8419 18.2927L45.8979 20.4774L50.3594 19.4151C54.0911 18.5266 57.3698 18.5606 59.9983 19.8339C62.7506 21.1646 64.2628 23.5822 64.9063 26.2849C65.5388 28.941 65.3529 31.8499 63.6175 34.3884L63.5653 34.4617C66.2501 35.7882 67.7353 38.1659 68.369 40.8274C68.9975 43.467 68.8123 46.3786 67.0945 48.9303C67.0662 48.9722 67.0374 49.0139 67.0083 49.0552C69.7216 50.3924 71.2189 52.7961 71.8578 55.4796C71.9225 55.7512 71.9783 56.0221 72.0238 56.2983L73.039 56.0566C75.8021 55.3987 78.68 56.4531 80.7607 57.8365C82.8556 59.231 84.8756 61.4436 85.5015 64.0722C86.0673 66.4484 85.762 69.3915 84.4812 71.9638C83.7621 73.4398 82.7215 74.736 81.4358 75.7571C80.1502 76.7782 78.6521 77.4983 77.0516 77.8645L44.9841 85.5001C36.7004 87.4725 27.3684 88.2448 19.2976 85.5101C11.0026 82.6982 4.37216 76.2833 1.62553 64.7481C-1.05119 53.5065 1.40048 39.9971 9.93551 32.1515L10.7485 31.4012C17.4612 25.2421 22.5025 20.6117 24.894 12.4631L24.8982 12.4563C25.5241 10.3357 26.7181 6.89972 29.0569 4.30164C30.263 2.96197 31.8307 1.77686 33.8373 1.15698ZM49.4449 56.2816L49.3983 56.2927C47.3643 56.7857 45.9697 57.7238 45.193 58.7235C44.442 59.6851 44.1737 60.787 44.4632 62.0025C44.8532 63.6406 45.5366 64.6232 46.3859 65.1458C47.2297 65.6697 48.7796 66.0661 51.614 65.3912L60.7867 63.2071C63.8269 62.4832 65.2605 61.3561 65.9116 60.4009C66.5348 59.487 66.7321 58.3064 66.3701 56.7863C66.0199 55.3156 65.3692 54.5311 64.4942 54.1074C63.511 53.6311 61.7284 53.3655 58.6752 54.0838L49.4449 56.2816ZM57.311 48.6098L57.3658 48.5967C60.3492 47.8777 61.7664 46.7429 62.4149 45.7766C63.0494 44.8369 63.238 43.6322 62.8813 42.1341C62.5363 40.6853 61.8951 39.916 61.0254 39.5026C60.036 39.0249 58.2342 38.7639 55.1419 39.5002L45.9637 41.6856C43.9003 42.1769 42.4927 43.1209 41.7043 44.1205C40.9541 45.0733 40.6908 46.1595 40.9743 47.3503C41.3591 48.9664 42.0457 49.9743 42.9173 50.5178C43.7686 51.0486 45.3067 51.4565 48.0888 50.8057L57.311 48.6098ZM38.9754 63.3092C38.309 60.5105 38.9147 57.806 40.4724 55.6172C39.257 54.9664 38.2042 54.0495 37.3925 52.935C36.7716 58.0235 35.0558 63.7003 31.2063 69.0501C30.7688 69.6576 30.108 70.0664 29.3691 70.1866C28.6302 70.3068 27.8738 70.1285 27.2664 69.6911C26.6589 69.2536 26.2501 68.5927 26.1299 67.8538C26.0097 67.115 26.188 66.3586 26.6254 65.7511C31.1886 59.4167 32.196 52.4327 32.0267 46.9119C31.9547 44.6425 31.679 42.3841 31.2028 40.164C31.0226 39.3289 30.8063 38.502 30.5547 37.6856L30.5508 37.6692C30.3216 37.0069 30.3472 36.283 30.6226 35.6386C30.8979 34.9942 31.4033 34.4753 32.0403 34.1831L32.0239 34.1145C31.3196 31.1566 32.0357 28.3071 33.7932 26.0561C35.1155 24.3641 36.9676 23.0706 39.1341 22.233C39.1893 22.0023 39.2626 21.75 39.3588 21.472C39.5749 20.8696 39.9807 19.9438 40.6767 18.337L41.6649 16.0577C43.8774 10.9323 41.1818 7.34392 38.9508 6.68058C37.4187 6.22486 36.313 6.29386 35.5029 6.54474C34.6764 6.79954 33.9345 7.31252 33.2487 8.0731C31.8063 9.67489 30.9011 12.0592 30.3068 14.0563C27.4615 23.7452 21.3344 29.3561 14.8437 35.303L13.7536 36.3019C7.12644 42.3943 4.76712 53.5882 7.11325 63.4414C9.42933 73.1684 14.7243 78.0051 21.1076 80.1675C27.7246 82.4104 35.8383 81.879 43.6775 80.0124L75.7477 72.3762C77.5943 71.9365 78.7556 70.8104 79.4318 69.4491C80.1519 68.0047 80.2595 66.4105 80.0145 65.3816C79.8309 64.6106 79.0194 63.4555 77.6342 62.5328C76.2353 61.6018 74.9857 61.3948 74.3464 61.547L71.3226 62.267C71.1069 62.7251 70.8548 63.1651 70.569 63.583C68.8614 66.0801 65.9622 67.7736 62.0934 68.6948L52.9207 70.879C49.1917 71.7668 45.9682 71.5138 43.4271 69.9501C40.8922 68.3878 39.5804 65.85 38.9754 63.3092ZM44.657 36.1979L53.8352 34.0125C56.8754 33.2886 58.309 32.1615 58.9601 31.2062C59.5833 30.2924 59.7806 29.1117 59.4186 27.5916C59.0678 26.1182 58.4177 25.3364 57.5427 24.9127C56.5527 24.4323 54.7557 24.1672 51.6661 24.9028L42.4934 27.0869C40.4355 27.577 39.0252 28.5216 38.2415 29.5288C37.4905 30.4905 37.2222 31.5923 37.5116 32.8078C37.8671 34.3005 38.6049 35.3049 39.5721 35.8719C40.5426 36.4411 42.1436 36.7963 44.657 36.1979Z" fill="#FAFD77"/>
</svg>
